<svg width="39" height="37" viewBox="0 0 39 37" fill="none" xmlns="http://www.w3.org/2000/svg">
<path d="M21.6542 29.3212C21.1811 28.3921 20.0269 26.431 17.709 24.9143C16.1218 23.8746 14.3953 23.371 12.541 23.0829C13.5044 21.6464 14.7063 20.4159 15.8204 19.0977C19.4355 14.8492 23.1498 10.6847 26.723 6.40182C28.543 4.21939 29.5121 4.04007 30.3801 3.85883C33.9723 3.1091 38.6138 6.38847 38.7302 9.52476C38.776 10.7362 38.1312 11.5565 35.9048 14.0518C30.8131 19.7597 26.2861 24.3191 22.6863 28.1994C22.3887 28.5199 22.0949 28.8404 21.6561 29.3192L21.6542 29.3212Z" fill="#001C28"/>
<path d="M9.08804 0.678666C9.59931 0.737805 10.0553 0.999162 10.3624 1.51234C10.6638 2.01407 10.8775 2.55395 11.0415 3.11101C11.6692 5.23811 13.0466 6.58878 15.187 7.16682C15.7498 7.31943 16.2782 7.55981 16.7685 7.8803C17.8216 8.5709 17.7949 9.96926 16.6884 10.5893C16.1848 10.8716 15.6449 11.1139 15.0935 11.2722C12.9454 11.8903 11.6291 13.2906 11.0091 15.4139C10.8641 15.9099 10.6333 16.3887 10.3853 16.8447C9.75193 17.9988 8.42606 18.0313 7.70304 16.921C7.25472 16.2342 7.02771 15.4463 6.75299 14.6832C6.18068 13.1036 5.14669 12.0334 3.52513 11.5164C2.80974 11.2894 2.10198 11.0013 1.4419 10.6427C0.201888 9.96926 0.150379 8.60905 1.33698 7.8536C1.87114 7.51402 2.47017 7.22786 3.07873 7.06762C5.17531 6.51628 6.36191 5.11793 6.99337 3.12436C7.16697 2.57685 7.4207 2.0465 7.68587 1.53523C7.95677 1.01442 8.40126 0.697743 9.08804 0.676758V0.678666Z" fill="#001C28"/>
<path d="M20.2005 30.359C20.2005 30.359 20.1967 30.3647 20.1967 30.3685C20.1452 30.4734 20.0479 30.5478 19.9544 30.6184C17.276 32.6139 14.5289 34.5445 11.4689 35.9104C11.0377 36.1012 10.5913 36.2843 10.122 36.3072C8.63401 36.3835 8.66644 35.0672 8.96213 33.9874C9.79008 30.9732 10.6409 27.9667 11.5147 24.9677C11.5547 24.8285 11.6024 24.6797 11.715 24.59C11.86 24.4755 12.0679 24.4908 12.251 24.5175C13.9623 24.7674 15.5819 25.4618 16.9612 26.5035C17.6575 27.03 18.2909 27.6385 18.8575 28.3043C19.1742 28.6763 20.4466 29.8114 20.2005 30.359Z" fill="#001C28"/>
</svg>
