<svg width="43" height="49" viewBox="0 0 43 49" fill="none" xmlns="http://www.w3.org/2000/svg">
<path d="M24.4947 38.5279C23.5615 39.3538 22.651 40.1618 21.7337 40.9652C21.4173 41.2413 21.092 41.5039 20.7599 41.7597C20.1656 42.2176 19.5375 42.2198 18.8958 41.8607C18.2745 41.5129 18.035 40.9383 18.0711 40.2785C18.2609 36.793 18.4756 33.312 18.6834 29.8265C18.8484 27.0391 19.0111 24.2538 19.1805 21.4663C19.2393 20.4923 19.3409 19.5182 19.3726 18.5419C19.3997 17.6464 19.8516 17.1123 20.6763 16.8587C21.5009 16.6028 22.1223 16.9597 22.5674 17.6105C23.6135 19.1367 24.6302 20.6786 25.6538 22.2204C28.3673 26.3119 31.0764 30.4056 33.7877 34.4993C34.0769 34.9347 34.3842 35.3611 34.6508 35.81C35.0643 36.508 35.0507 37.2306 34.5378 37.8568C34.0679 38.4291 33.4578 38.6536 32.6625 38.465C31.1781 38.1104 29.6733 37.8456 28.0284 37.5157C28.7966 40.3772 29.5332 43.1378 30.2788 45.8961C30.6629 47.3168 30.3714 48.0978 29.305 48.4524C28.1369 48.8407 27.3574 48.4591 27.0117 47.236C26.2864 44.6662 25.595 42.0897 24.9082 39.5087C24.82 39.1787 24.7613 38.8556 24.4969 38.5279H24.4947Z" fill="#001C28"/>
<path d="M38.1868 19.4599C39.0657 19.4599 39.9469 19.4374 40.8258 19.4666C41.7522 19.4958 42.4413 20.1691 42.4865 21.0264C42.5362 21.9915 41.9668 22.8085 41.0133 22.8444C39.1177 22.9162 37.2152 22.9139 35.3196 22.8511C34.3932 22.8197 33.7583 22.0207 33.7741 21.1656C33.79 20.2319 34.5401 19.4913 35.55 19.4621C36.429 19.4374 37.3101 19.4576 38.1891 19.4576C38.1891 19.4576 38.1891 19.4599 38.1891 19.4621L38.1868 19.4599Z" fill="#001C28"/>
<path d="M6.50063 34.6115C6.43962 34.093 6.65653 33.6801 7.02029 33.3187C8.18842 32.1607 9.34298 30.9914 10.5201 29.8422C11.3222 29.0612 12.3345 28.9961 13.053 29.6403C13.8663 30.3697 13.907 31.3325 13.071 32.2168C11.9187 33.4354 10.719 34.6137 9.52826 35.7943C8.94758 36.3688 8.18616 36.508 7.49025 36.1982C6.88699 35.9312 6.41703 35.3993 6.50289 34.6115H6.50063Z" fill="#001C28"/>
<path d="M5.29635 19.4599C6.13912 19.4599 6.98414 19.4397 7.82691 19.4644C8.78716 19.4935 9.59152 20.2925 9.5983 21.1813C9.60507 22.0633 8.91821 22.8489 7.9444 22.878C6.15494 22.9319 4.36095 22.9319 2.57149 22.878C1.55249 22.8489 0.815916 22.0207 0.856585 21.1252C0.897255 20.205 1.66546 19.4958 2.66412 19.4554C2.70028 19.4554 2.73417 19.4554 2.77032 19.4554C3.61308 19.4554 4.45585 19.4554 5.30087 19.4554V19.4599H5.29635Z" fill="#001C28"/>
<path d="M31.5034 13.1667C30.7239 13.1353 30.1817 12.7336 29.8744 12.049C29.5942 11.4274 29.6846 10.8191 30.1749 10.3164C31.3701 9.09099 32.5586 7.85435 33.7854 6.66036C34.6214 5.8479 35.532 5.81199 36.2753 6.46959C37.1181 7.21696 37.2107 8.04736 36.3431 8.99448C35.1411 10.3097 33.8306 11.5261 32.5563 12.774C32.2761 13.05 31.9101 13.1802 31.5012 13.1645L31.5034 13.1667Z" fill="#001C28"/>
<path d="M8.31043 6.02521C8.7352 5.97134 9.11478 6.19578 9.45144 6.53018C10.6399 7.71745 11.8419 8.889 13.0168 10.0875C13.8867 10.9762 13.8935 11.8515 13.0801 12.6371C12.3006 13.3867 11.4578 13.3665 10.6015 12.5316C9.37461 11.3353 8.16356 10.1234 6.95477 8.90695C6.39895 8.34811 6.34473 7.68602 6.65427 6.99028C6.95477 6.31473 7.49703 6.00501 8.31043 6.02745V6.02521Z" fill="#001C28"/>
<path d="M19.9894 4.61575C19.9894 3.78086 19.9668 2.94371 19.9962 2.10882C20.0278 1.13701 20.8367 0.360467 21.7359 0.387399C22.599 0.414331 23.3898 1.17965 23.4034 2.08413C23.4305 3.85941 23.435 5.63693 23.4034 7.41221C23.3853 8.39299 22.5674 9.14934 21.6523 9.12465C20.7395 9.09772 20.0368 8.40646 20.0052 7.4369C19.9736 6.49652 19.9984 5.55614 19.9984 4.61575H19.9894Z" fill="#001C28"/>
</svg>
