<svg width="168" height="58" viewBox="0 0 168 58" fill="none" xmlns="http://www.w3.org/2000/svg">
<g clip-path="url(#clip0_323_497)" filter="url(#filter0_i_323_497)">
<path d="M47.1985 46.7292C46.8342 47.9561 46.3667 49.1425 45.7892 50.2952C44.421 53.0119 42.3104 55.6207 39.4986 56.9824C35.6623 58.8564 29.9149 58.162 26.6355 54.7915C23.7686 51.8524 23.7824 47.9224 23.7824 45.4552C23.7892 42.0577 24.8686 40.0556 25.453 39.1321C26.0717 38.1681 27.1099 36.5637 28.6774 36.5367C29.6742 36.5165 30.788 37.13 31.2967 38.067C32.4998 40.2645 29.7086 43.2306 32.548 45.1114C34.528 46.4191 35.0161 42.8329 35.1605 41.6532C35.4286 39.2938 35.133 36.5233 33.0223 35.0133C30.2036 32.9775 26.3467 34.8582 26.0511 35.0065C19.5199 38.3231 21.5549 46.3922 21.0668 52.1625C20.9018 54.1309 20.6749 55.0814 19.9118 55.7622C18.8255 56.7127 17.3336 56.5172 14.1024 56.1262C9.24868 55.533 6.97993 55.2364 5.50869 54.8994C3.07495 54.3331 1.83745 54.0433 1.22558 53.3894C-0.156289 51.9131 0.194335 49.6279 1.05371 45.4215C2.53183 38.1546 3.26745 34.5212 4.85557 30.2406C6.00369 27.1397 7.41306 23.9108 10.1905 21.1065C10.9812 20.311 11.9505 19.4684 13.3874 19.0302C15.6287 18.3427 18.6193 18.5179 20.0493 20.5739C20.4411 21.1402 20.9568 22.1446 21.6855 23.6546C22.2011 24.6995 22.2699 24.9624 22.5586 25.077C23.6792 25.5354 25.1849 22.7041 27.378 21.1334C31.5236 18.1472 39.6911 18.9359 44.0773 22.9872C44.3935 23.2704 44.6823 23.5737 44.9504 23.8905C47.6317 27.0656 48.0579 32.4112 48.2779 36.3682C48.4773 39.8399 48.2023 43.3991 47.1917 46.736L47.1985 46.7292Z" fill="#09B4FC"/>
<path d="M68.4282 44.1271C68.3113 44.2956 68.2013 44.4709 68.0776 44.6327C64.9563 48.8863 58.6864 48.8324 57.772 48.8054C57.1739 48.7852 52.987 48.6369 49.4464 45.8663C50.4501 42.5362 50.732 38.9702 50.5326 35.4986C50.3126 31.5416 49.8864 26.1959 47.2052 23.0209C46.937 22.7041 46.6414 22.4007 46.332 22.1176C47.2533 19.556 48.3258 17.0483 48.9445 14.4058C48.9514 14.3721 48.9651 14.3384 48.972 14.3047C49.2058 13.3003 49.5426 12.1745 50.5464 11.6757C51.0483 11.4263 51.5639 11.4263 54.0526 12.1139C56.8645 12.8756 58.487 13.4958 59.422 13.8665C61.1682 14.5541 62.0414 14.9114 62.3301 15.3294C63.1207 16.4821 62.447 17.837 61.3607 21.4705C59.4082 28.016 60.0064 28.953 60.3982 29.2968C61.0376 29.8563 62.3438 29.9035 63.2238 29.6608C64.207 29.3979 64.4682 28.8249 65.1626 28.8654C65.2863 28.8721 65.4101 28.8923 65.5132 28.9328C66.187 29.1552 66.7232 29.917 67.177 30.6855C68.4488 32.8156 69.5076 34.5953 69.7138 37.4063C69.8169 38.8893 70.0232 41.6127 68.442 44.1271H68.4282Z" fill="#09B4FC"/>
<path d="M58.5146 12.053C59.2227 12.0732 62.3096 12.1609 64.1796 9.788C65.8158 7.71176 65.8227 4.64458 64.2552 2.4807C61.8421 -0.849375 57.2565 0.121337 57.0021 0.175265C56.6308 0.262899 53.049 1.14598 51.9558 4.3682C51.7702 4.91422 51.344 6.46466 52.004 8.14993C53.0765 10.8868 56.2527 11.9856 58.5146 12.053Z" fill="#09B4FC"/>
<path d="M122.39 35.3094C122.163 36.3745 121.881 37.4328 121.538 38.4709C120.128 42.7313 117.708 46.6883 114.195 49.5937C111.253 52.0272 109.63 52.007 108.977 51.9328C106.605 51.6834 98.747 47.8545 99.4276 44.9221C99.6132 44.1739 100.493 43.7964 100.926 43.6009C104.281 42.0437 107.011 38.3766 108.083 36.1453C109.142 33.9275 110.799 25.4809 108.083 24.0114C107.574 23.7485 106.804 23.7822 106.447 24.1597C105.711 24.9417 106.523 26.3977 106.681 27.2875C106.914 28.629 106.873 29.9772 106.66 31.3254C106.268 33.8735 105.23 36.5295 103.305 38.3429C100.679 40.8303 95.8251 41.7201 92.2776 39.8124C89.177 38.1474 88.1458 34.9454 87.5064 32.9433C86.6195 30.1794 86.9701 28.2785 87.2108 27.3887C87.4651 26.4449 87.8776 24.881 89.1495 24.463C89.9539 24.2001 91.0264 24.4226 91.6795 25.0562C93.2264 26.5325 91.7414 29.6402 94.5464 30.4558C96.4988 31.0221 95.9626 27.9819 95.7632 26.9842C95.3576 25.0023 94.3882 22.825 92.2845 22.1239C89.4589 21.1869 86.812 23.6878 86.6195 23.8766C82.1714 28.2245 85.9526 34.2645 87.0664 39.0844C87.4445 40.7157 87.5133 41.5583 87.0664 42.2931C86.4339 43.338 85.1758 43.5537 82.4395 44.0458C78.342 44.794 76.417 45.1176 75.1383 45.2255C73.0071 45.3805 71.9346 45.4479 71.2677 45.0704C71.0546 44.9491 70.8621 44.8143 70.7039 44.6525C70.8277 44.4907 70.9377 44.3154 71.0546 44.1469C72.6289 41.6325 72.4296 38.9091 72.3264 37.4261C72.1133 34.6083 71.0546 32.8287 69.7896 30.7053C69.3358 29.9435 68.7996 29.175 68.1258 28.9526C68.0846 27.7392 68.0846 26.5932 68.1327 25.3529C68.2565 22.5418 68.5521 19.5623 70.0714 16.576C70.5114 15.7266 71.0752 14.8099 72.1271 14.0886C73.7633 12.9628 76.2452 12.3561 77.9502 13.6571C78.4245 14.0212 79.0983 14.7155 80.0952 15.7536C80.7758 16.4749 80.9064 16.6636 81.1745 16.6906C82.2058 16.7782 82.687 14.1088 84.0551 12.2685C87.417 7.74523 96.7188 7.47559 99.0632 10.0844C100.108 11.2371 100.851 12.7538 102.734 12.3966C105.058 11.9516 106.536 10.017 108.716 9.26871C110.558 8.63505 112.49 8.79684 114.257 9.57206C116.711 10.6439 118.705 12.6729 120.163 14.9851C120.905 16.1648 121.503 17.4052 121.95 18.632C123.737 23.5934 123.456 30.2266 122.39 35.3364V35.3094Z" fill="#09B4FC"/>
<path d="M165.242 36.4821C164.513 34.1834 164.128 33.1655 163.104 32.6195C161.509 31.7634 160.285 33.0509 158.731 32.5588C157.569 32.1881 156.05 30.7657 154.805 21.6923C153.747 13.9468 154.235 10.5224 152.227 9.62579C151.395 9.25503 149.959 9.68646 147.085 10.5426C144.204 11.4122 142.76 11.8503 142.224 12.4638C139.763 15.3085 145.634 20.553 144.919 29.0737C144.624 32.5588 143.194 36.9405 141.138 37.1899C139.804 37.3517 138.574 35.7474 137.824 34.7969C135.817 32.2016 135.37 29.4782 134.937 26.1683C133.844 17.7959 134.524 15.3287 132.675 14.2164C131.726 13.6435 130.186 13.812 127.113 14.1558C124.961 14.3985 123.655 14.54 122.775 14.9512C123.517 16.1309 124.116 17.3713 124.562 18.5981C126.35 23.5595 126.068 30.1927 125.002 35.3025C124.776 36.3675 124.494 37.4259 124.15 38.464C124.349 39.1516 124.576 39.7111 124.858 40.3448C126.522 44.0995 127.361 45.9803 129.526 47.5846C134.256 51.117 142.259 51.2248 145.057 48.0565C145.662 47.3757 146.143 46.3982 147.099 46.3376C148.494 46.2432 148.996 48.2453 150.804 49.5665C154.09 51.9731 159.15 50.308 160.464 49.8699C162.45 49.216 166.149 47.9959 167.201 44.9354C167.558 43.8906 166.782 41.4233 165.228 36.4821H165.242Z" fill="#09B4FC"/>
</g>
<defs>
<filter id="filter0_i_323_497" x="0.297363" y="0" width="167" height="62" filterUnits="userSpaceOnUse" color-interpolation-filters="sRGB">
<feFlood flood-opacity="0" result="BackgroundImageFix"/>
<feBlend mode="normal" in="SourceGraphic" in2="BackgroundImageFix" result="shape"/>
<feColorMatrix in="SourceAlpha" type="matrix" values="0 0 0 0 0 0 0 0 0 0 0 0 0 0 0 0 0 0 127 0" result="hardAlpha"/>
<feOffset dy="4"/>
<feGaussianBlur stdDeviation="2"/>
<feComposite in2="hardAlpha" operator="arithmetic" k2="-1" k3="1"/>
<feColorMatrix type="matrix" values="0 0 0 0 0 0 0 0 0 0 0 0 0 0 0 0 0 0 0.25 0"/>
<feBlend mode="normal" in2="shape" result="effect1_innerShadow_323_497"/>
</filter>
<clipPath id="clip0_323_497">
<rect width="167" height="58" fill="white" transform="translate(0.297363)"/>
</clipPath>
</defs>
</svg>
