<svg width="37" height="35" viewBox="0 0 37 35" fill="none" xmlns="http://www.w3.org/2000/svg">
<path d="M0.883301 26.1286C0.883301 28.4506 0.941689 30.0568 1.01847 31.1717C1.17924 33.5221 2.45659 34.8697 3.85551 34.9393C4.59753 34.9733 5.33988 34.989 6.08226 34.9866C7.03167 34.9866 7.75953 34.9665 8.30902 34.9393C9.70794 34.8697 10.9853 33.5221 11.1461 31.1717C11.2228 30.0568 11.2812 28.4506 11.2812 26.1286C11.2812 23.8066 11.2228 22.2004 11.1469 21.0854C10.9853 18.7351 9.70714 17.3875 8.30902 17.3178C7.56699 17.2839 6.82464 17.2682 6.08226 17.2706C5.33988 17.2682 4.59753 17.2839 3.85551 17.3178C2.45659 17.3875 1.17924 18.7351 1.01847 21.0854C0.941689 22.2004 0.883301 23.8066 0.883301 26.1286Z" fill="#001C28"/>
<path d="M26.4782 17.8611C26.4782 24.5767 26.5838 28.3891 26.6893 30.5292C26.8061 32.9032 27.9803 34.7551 29.6504 34.9063C30.1814 34.9535 30.8477 34.9866 31.6772 34.9866C32.5066 34.9866 33.1729 34.9535 33.7039 34.9063C35.374 34.7551 36.5482 32.9032 36.665 30.5292C36.7705 28.3891 36.8761 24.5767 36.8761 17.8611C36.8761 11.1456 36.7705 7.33309 36.665 5.193C36.5482 2.81905 35.374 0.967143 33.7039 0.815966C33.0291 0.758951 32.3531 0.732166 31.6772 0.735653C30.8477 0.735653 30.1814 0.768724 29.6504 0.815966C27.9803 0.967143 26.8061 2.81905 26.6893 5.193C26.5838 7.33309 26.4782 11.1456 26.4782 17.8611Z" fill="#001C28"/>
<path d="M13.6807 22.5854C13.6807 26.614 13.7599 29.1568 13.8503 30.7548C13.9887 33.1736 15.242 34.826 16.8265 34.9287C17.3576 34.963 18.0311 34.9866 18.8797 34.9866C19.7275 34.9866 20.4018 34.963 20.9329 34.9275C22.5166 34.826 23.7707 33.1736 23.9083 30.7548C23.9995 29.1568 24.0787 26.614 24.0787 22.5854C24.0787 18.5568 23.9995 16.0139 23.9091 14.4159C23.7707 11.9971 22.5174 10.3448 20.9329 10.2421C20.2489 10.2009 19.5643 10.1816 18.8797 10.1842C18.0319 10.1842 17.3576 10.2078 16.8265 10.2432C15.2428 10.3448 13.9887 11.9971 13.8511 14.4159C13.7599 16.0139 13.6807 18.5568 13.6807 22.5854Z" fill="#001C28"/>
</svg>
